<?xml version="1.0" standalone="no"?>
<!DOCTYPE svg PUBLIC "-//W3C//DTD SVG 20010904//EN"
 "http://www.w3.org/TR/2001/REC-SVG-20010904/DTD/svg10.dtd">
<svg version="1.0" xmlns="http://www.w3.org/2000/svg"
 width="11265.000000pt" height="4344.000000pt" viewBox="0 0 11265.000000 4344.000000"
 preserveAspectRatio="xMidYMid meet">

<g transform="translate(0.000000,4344.000000) scale(0.100000,-0.100000)"
fill="#000000" stroke="none">
<path d="M81115 41614 c-215 -21 -277 -29 -390 -50 -378 -71 -638 -161 -1269
-444 -438 -196 -580 -252 -746 -295 -355 -92 -705 -64 -1045 84 -149 66 -344
209 -456 336 -34 39 -78 80 -97 92 -46 29 -153 46 -212 35 -34 -7 -307 -170
-1095 -657 -577 -356 -1062 -659 -1077 -673 -56 -52 -89 -167 -69 -239 11 -37
145 -223 285 -394 101 -123 412 -430 559 -552 546 -450 1217 -772 1902 -911
314 -64 582 -91 880 -89 411 3 709 54 1118 192 201 69 332 121 697 281 575
252 772 318 1056 355 483 63 844 -63 1213 -424 162 -159 232 -188 348 -142 68
27 2120 1283 2165 1326 83 77 99 164 49 264 -70 137 -333 454 -570 683 -320
312 -655 548 -1071 756 -496 249 -923 375 -1510 447 -118 15 -578 28 -665 19z"/>
<path d="M1840 36954 c-96 -30 -173 -112 -222 -233 l-23 -56 -3 -11685 c-1
-7701 1 -11707 8 -11750 22 -145 126 -285 246 -329 l55 -21 2087 2 2087 3 65
31 c74 36 137 93 175 159 59 99 55 -182 55 3992 l0 3842 2233 4 c1562 3 2270
7 2357 15 666 61 1071 132 1592 277 1006 282 1930 747 2763 1389 558 431 1093
973 1510 1531 638 853 1088 1789 1350 2806 416 1620 301 3390 -324 4948 -204
507 -467 1008 -759 1446 -465 695 -1051 1340 -1662 1830 -682 547 -1403 966
-2175 1265 -722 279 -1432 446 -2250 527 -156 16 -527 17 -4645 19 -3872 2
-4481 1 -4520 -12z m8925 -4818 c289 -42 521 -99 745 -183 1032 -385 1817
-1304 2029 -2378 52 -262 64 -407 58 -700 -7 -341 -42 -570 -133 -865 -127
-407 -318 -766 -582 -1090 -112 -138 -351 -376 -479 -477 -471 -375 -950 -584
-1568 -686 -130 -21 -135 -21 -2297 -24 l-2168 -4 0 3216 0 3216 2138 -4
c1977 -3 2146 -5 2257 -21z"/>
<path d="M21519 36951 c-102 -40 -196 -128 -246 -230 l-28 -56 0 -2110 0
-2110 28 -58 c38 -77 111 -148 194 -189 l68 -33 10045 -6 c7664 -4 10070 -8
10150 -17 417 -48 683 -108 1036 -237 777 -285 1468 -830 1931 -1525 261 -391
432 -773 548 -1225 78 -303 110 -520 125 -844 13 -285 13 -6490 0 -6771 -15
-315 -47 -535 -120 -825 -114 -452 -294 -857 -553 -1245 -443 -665 -1098
-1195 -1838 -1488 -339 -134 -650 -213 -1014 -256 -71 -8 -150 -18 -175 -22
-25 -4 -4563 -10 -10085 -13 l-10040 -6 -60 -30 c-79 -39 -173 -134 -211 -210
l-29 -60 0 -2110 0 -2110 28 -58 c38 -77 111 -148 194 -189 l68 -33 10065 -3
c10771 -3 10211 -5 10677 43 744 76 1448 241 2178 510 1344 495 2609 1373
3566 2475 924 1064 1573 2308 1909 3658 120 481 175 813 237 1422 16 151 17
482 21 3820 3 3797 3 3793 -39 4220 -165 1669 -791 3235 -1825 4560 -238 306
-490 586 -797 886 -1239 1211 -2826 2033 -4535 2348 -348 65 -663 104 -1042
131 -190 13 -1389 15 -10300 14 -9681 0 -10087 -1 -10131 -18z"/>
<path d="M53310 36956 c-114 -32 -212 -112 -262 -214 l-33 -67 0 -11740 0
-11740 26 -55 c49 -102 125 -176 237 -228 l57 -27 2100 0 2100 0 56 28 c122
59 207 175 229 312 6 38 10 1444 10 3873 l0 3812 803 0 803 0 1094 -1592
c3394 -4941 4121 -6002 4141 -6040 69 -138 186 -250 331 -318 176 -82 -77 -75
2573 -75 l2360 0 65 31 c108 52 186 144 216 256 19 74 17 192 -4 253 -11 31
-540 820 -1428 2130 -2757 4067 -3994 5894 -3999 5908 -4 9 23 24 92 52 220
86 595 264 832 397 316 177 676 410 948 615 715 538 1376 1238 1869 1978 747
1121 1205 2423 1319 3745 114 1330 -101 2644 -631 3855 -90 208 -323 660 -437
850 -493 824 -1085 1516 -1827 2135 -707 590 -1588 1093 -2462 1406 -671 240
-1286 376 -2043 451 -156 16 -527 17 -4630 19 -3563 2 -4469 0 -4505 -10z
m8750 -4806 c775 -43 1491 -358 2058 -905 264 -254 479 -549 649 -890 337
-673 419 -1466 228 -2210 -72 -279 -156 -493 -291 -736 -175 -314 -346 -536
-604 -785 -430 -415 -967 -701 -1550 -824 -322 -69 -131 -64 -2537 -67 l-2183
-3 0 3215 0 3215 2028 0 c1184 0 2100 -4 2202 -10z"/>
<path d="M99180 36959 c-1192 -79 -2286 -371 -3345 -894 -782 -385 -1501 -882
-2127 -1468 -660 -618 -1210 -1311 -1656 -2087 -583 -1015 -957 -2135 -1101
-3305 -59 -477 -55 -183 -59 -4160 -3 -3779 -3 -3800 38 -4215 76 -756 262
-1545 527 -2235 348 -905 843 -1757 1439 -2475 228 -275 336 -394 593 -650
538 -537 1095 -972 1741 -1357 1086 -649 2334 -1063 3580 -1187 325 -33 416
-38 785 -43 617 -9 1137 33 1711 137 2086 378 3955 1491 5301 3156 128 159
366 484 478 654 912 1385 1406 2927 1465 4575 12 337 12 6696 0 7045 -45 1298
-375 2572 -964 3715 -590 1146 -1405 2134 -2412 2926 -478 376 -978 691 -1539
969 -1049 520 -2129 810 -3325 895 -234 16 -907 19 -1130 4z m893 -4820 c469
-33 952 -165 1397 -381 417 -201 725 -417 1049 -733 215 -209 365 -388 523
-620 261 -384 443 -782 558 -1220 75 -288 112 -512 130 -805 14 -226 14 -6684
0 -6910 -34 -539 -162 -1035 -389 -1505 -213 -441 -469 -796 -822 -1140 -148
-145 -218 -205 -364 -315 -369 -277 -725 -465 -1150 -605 -379 -126 -703 -186
-1106 -204 -1079 -49 -2139 345 -2924 1089 -494 468 -835 997 -1060 1641 -71
202 -149 544 -180 777 -32 253 -35 543 -35 3722 0 3165 3 3467 35 3712 100
767 424 1499 921 2084 174 205 447 463 657 622 220 166 412 282 677 410 656
318 1309 437 2083 381z"/>
<path d="M77540 36917 c-100 -30 -174 -72 -235 -132 -75 -75 -108 -147 -160
-350 -26 -99 -1379 -5303 -3007 -11565 -1627 -6262 -2962 -11408 -2965 -11435
-7 -66 28 -196 74 -272 68 -114 188 -212 311 -255 l67 -23 2335 0 2335 0 78
23 c95 27 157 58 223 110 60 47 126 147 148 222 9 30 179 683 379 1450 l363
1395 3155 3 3154 2 392 -1420 c279 -1010 402 -1440 425 -1487 69 -140 240
-267 394 -292 51 -9 616 -11 2129 -9 2246 3 2084 -1 2171 60 77 54 112 158 94
272 -5 33 -534 1965 -1175 4291 -642 2327 -2080 7544 -3196 11595 -1116 4051
-2041 7401 -2056 7445 -67 207 -196 335 -388 385 -27 7 -834 10 -2505 9
l-2465 0 -75 -22z m3905 -12302 c493 -1787 923 -3349 957 -3469 33 -121 62
-225 65 -233 4 -11 -312 -13 -1867 -13 -1778 0 -1871 1 -1866 18 3 9 109 422
236 917 1098 4283 1533 5978 1547 6025 14 50 16 53 24 30 5 -14 412 -1487 904
-3275z"/>
<path d="M21477 27326 c-84 -23 -165 -105 -209 -213 l-23 -58 0 -2140 0 -2140
24 -60 c31 -76 117 -165 177 -183 60 -17 12278 -18 12337 0 52 16 135 93 170
157 59 108 57 17 57 2234 0 2206 2 2104 -55 2217 -33 65 -106 145 -160 173
l-40 22 -6115 2 c-4964 1 -6124 -1 -6163 -11z"/>
<path d="M78401 9338 c-359 -445 -654 -815 -657 -822 -3 -7 43 -23 128 -45
l132 -35 -95 -32 c-469 -159 -894 -485 -1166 -894 -436 -656 -533 -1549 -256
-2365 54 -161 189 -437 278 -570 250 -374 581 -657 974 -834 293 -132 593
-198 941 -208 624 -17 1150 148 1604 505 174 136 404 398 528 602 369 604 485
1404 307 2113 -198 791 -785 1424 -1551 1675 -253 83 -422 111 -721 120 l-209
7 434 355 c238 195 508 417 601 493 l168 139 -48 36 c-46 34 -629 484 -703
543 l-36 27 -653 -810z m567 -1694 c265 -39 475 -144 663 -333 225 -224 362
-529 426 -941 24 -161 25 -531 0 -685 -35 -216 -80 -368 -157 -533 -158 -332
-412 -567 -726 -671 -181 -60 -419 -77 -624 -47 -580 88 -981 573 -1075 1299
-19 154 -22 455 -5 582 90 670 418 1144 892 1289 181 56 401 71 606 40z"/>
<path d="M87998 8541 c-10 -28 -1185 -3156 -1193 -3180 -3 -8 -7 -12 -10 -9
-2 2 -257 724 -565 1603 -309 880 -563 1601 -566 1604 -4 5 -1008 -184 -1050
-197 -20 -7 22 -125 866 -2382 l888 -2375 357 -3 356 -2 19 42 c42 96 1900
4682 1902 4696 2 12 -84 33 -407 103 -225 49 -450 97 -498 108 l-88 19 -11
-27z"/>
<path d="M60185 8544 c-16 -2 -73 -9 -125 -15 -254 -28 -570 -119 -793 -228
-735 -360 -1205 -1040 -1307 -1896 -18 -145 -15 -502 5 -665 42 -340 124 -620
265 -905 404 -819 1201 -1305 2138 -1305 861 0 1576 374 2024 1060 459 702
554 1711 232 2487 -84 204 -209 419 -342 587 -87 111 -306 324 -424 412 -350
261 -765 421 -1202 463 -101 10 -400 13 -471 5z m363 -894 c201 -26 420 -111
563 -219 245 -186 418 -463 508 -812 45 -176 62 -306 68 -529 8 -294 -20 -507
-97 -741 -145 -441 -423 -740 -808 -869 -240 -80 -574 -80 -812 0 -497 166
-817 639 -890 1315 -13 119 -13 382 1 503 15 134 54 318 95 440 175 522 524
842 993 911 82 12 284 13 379 1z"/>
<path d="M106280 8543 c-431 -44 -755 -186 -995 -434 -367 -381 -448 -932
-208 -1414 106 -211 290 -430 513 -610 135 -109 463 -342 687 -489 388 -253
571 -519 534 -774 -39 -270 -256 -413 -606 -400 -95 4 -138 11 -205 33 -184
60 -361 160 -481 273 -35 33 -109 121 -164 196 -55 74 -103 135 -106 136 -8 0
-519 -815 -519 -829 0 -20 197 -236 271 -297 325 -269 728 -404 1204 -404 249
0 458 32 674 102 481 158 818 480 962 920 46 143 63 253 63 423 -1 524 -249
913 -879 1380 -60 45 -247 174 -415 286 -252 169 -322 220 -402 299 -80 79
-103 108 -135 175 -37 77 -38 84 -38 185 0 92 3 112 26 160 63 135 197 200
417 200 226 0 413 -72 566 -218 26 -26 93 -102 147 -169 55 -68 102 -123 104
-123 2 0 120 127 261 283 141 155 284 310 317 344 l60 61 -101 119 c-112 134
-169 188 -286 272 -217 157 -497 262 -808 306 -98 14 -359 18 -458 8z"/>
<path d="M37057 8460 c-158 -9 -290 -20 -293 -22 -5 -6 -1923 -4797 -1921
-4799 3 -2 1002 -87 1003 -85 1 0 130 334 287 741 l285 740 629 3 629 2 258
-727 c142 -401 261 -731 265 -735 10 -11 1136 46 1134 57 -1 6 -409 1097 -906
2425 l-905 2415 -89 1 c-48 1 -217 -6 -376 -16z m171 -2126 c84 -246 151 -449
149 -451 -2 -2 -145 -2 -318 -1 l-314 3 160 447 c88 246 162 448 165 448 3 0
74 -201 158 -446z"/>
<path d="M42867 8473 c-11 -10 -8 -2905 3 -3137 23 -498 96 -759 297 -1061
226 -342 604 -586 1065 -689 358 -80 835 -72 1182 19 369 96 676 287 905 561
234 280 331 517 388 944 15 111 17 307 20 1748 l4 1622 -508 -2 -508 -3 -6
-1640 c-6 -1771 -4 -1702 -58 -1855 -102 -292 -271 -450 -567 -530 -122 -34
-365 -39 -500 -11 -183 38 -306 102 -412 215 -135 144 -194 292 -234 586 -8
60 -12 544 -15 1663 l-4 1577 -523 0 c-287 0 -526 -3 -529 -7z"/>
<path d="M50550 8035 l0 -445 695 0 695 0 0 -1995 0 -1995 533 2 532 3 3 1993
2 1992 715 0 715 0 0 445 0 445 -1945 0 -1945 0 0 -445z"/>
<path d="M67116 8428 c-4 -29 -74 -1106 -156 -2393 -82 -1287 -151 -2354 -153
-2372 l-3 -32 61 -5 c78 -8 908 -47 910 -44 1 2 41 647 89 1433 48 787 90
1456 94 1487 l7 57 625 -1444 625 -1445 294 2 294 3 626 1452 c344 799 629
1449 632 1445 3 -4 58 -679 122 -1501 65 -822 118 -1496 120 -1497 4 -4 1037
63 1040 67 2 2 -81 1089 -184 2414 -103 1326 -188 2413 -188 2418 -1 4 -252 7
-559 7 l-559 0 -644 -1551 c-436 -1053 -646 -1547 -652 -1538 -5 8 -300 705
-657 1549 l-648 1535 -565 3 -566 2 -5 -52z"/>
<path d="M92735 8468 c-3 -7 -4 -1104 -3 -2438 l3 -2425 1458 -3 1457 -2 0
445 0 445 -927 2 -928 3 -3 603 -2 602 780 0 780 0 0 450 0 450 -780 0 -780 0
2 493 3 492 793 3 792 2 0 445 0 445 -1320 0 c-1047 0 -1322 -3 -1325 -12z"/>
<path d="M99650 6040 l0 -2440 530 0 530 0 -2 2438 -3 2437 -527 3 -528 2 0
-2440z"/>
<path d="M4090 7749 c-658 -63 -1254 -482 -1541 -1084 -155 -323 -216 -691
-174 -1045 113 -971 931 -1700 1905 -1700 502 0 974 191 1333 539 672 652 780
1676 258 2452 -391 583 -1077 906 -1781 838z"/>
<path d="M11723 7749 c-580 -56 -1101 -372 -1426 -864 -151 -230 -251 -497
-293 -785 -22 -156 -15 -479 15 -625 79 -385 266 -733 539 -1002 577 -571
1457 -715 2187 -359 585 286 989 854 1065 1497 20 167 8 453 -24 607 -127 597
-501 1079 -1045 1346 -309 152 -676 218 -1018 185z"/>
<path d="M19491 7749 c-732 -77 -1368 -576 -1611 -1266 -71 -200 -100 -359
-107 -578 -11 -333 47 -612 187 -900 96 -199 196 -341 354 -504 482 -495 1184
-693 1851 -521 738 190 1283 785 1416 1545 29 166 31 446 5 600 -56 334 -180
623 -376 881 -399 524 -1063 811 -1719 743z"/>
</g>
</svg>
