<svg width="21259.842000000004" height="7086.6143" xmlns="http://www.w3.org/2000/svg">
 <metadata id="metadata32">image/svg+xml</metadata>

 <g>
  <title>background</title>
  <rect fill="none" id="canvas_background" height="602" width="802" y="-1" x="-1"/>
 </g>
 <g>
  <title>Layer 1</title>
  <path fill="#102a83" fill-rule="evenodd" d="m15217.896836,4583.188867c490.036,0 883.673,-397.6526 883.673,-883.6732l0,-642.674c0,-486.0206 -393.637,-883.6731 -883.673,-883.6731c-486.021,0 -883.677,397.6525 -883.677,883.6731l0,642.674c0,486.0206 397.656,883.6732 883.677,883.6732zm-401.671,-1526.3472c0,-220.9165 180.751,-401.6712 401.671,-401.6712c224.935,0 401.668,180.7547 401.668,401.6712l0,642.674c0,220.9165 -176.733,401.6677 -401.668,401.6677c-220.92,0 -401.671,-180.7512 -401.671,-401.6677l0,-642.674z" id="path4"/>
  <path fill="#102a83" fill-rule="evenodd" d="m12233.487836,2976.507467c0,-449.8704 -377.57,-803.3389 -811.376,-803.3389l-831.456,0c-24.101,0 -44.184,16.0675 -44.184,40.1653l0,2329.6897c0,20.0826 20.083,40.1653 44.184,40.1653l397.653,0c24.101,0 40.169,-20.0827 40.169,-40.1653l0,-763.1736l160.665,0l521.587,759.1549c12.049,28.1164 40.165,44.184 72.3,44.184l445.856,0c24.097,0 40.165,-20.0827 40.165,-40.1653c0,-8.0338 0,-12.0525 -4.015,-20.0863l-541.67,-799.3238c297.236,-116.4845 510.122,-409.7014 510.122,-747.106zm-1205.01,-321.337l405.686,0c176.733,0 321.334,144.6045 321.334,321.337c0,176.7361 -144.601,321.337 -321.334,321.337l-405.686,0l0,-642.674z" id="path6"/>
  <path fill="#000200" fill-rule="evenodd" d="m8616.278636,3619.181467c15.1699,0 30.3398,-16.0676 30.3398,-40.1689l0,-401.6677c0,-20.0863 -15.1699,-40.1689 -30.3398,-40.1689l-1216.6791,0c-18.2028,0 -30.3398,20.0826 -30.3398,40.1689l0,401.6677c0,24.1013 12.137,40.1689 30.3398,40.1689l1216.6791,0z" id="path8"/>
  <path fill="#102a83" fill-rule="evenodd" d="m7409.425036,2173.168567c-20.0827,0 -40.1653,20.0826 -40.1653,40.1653l0,401.6713c0,24.1013 20.0826,40.1653 40.1653,40.1653l1972.2024,0c224.9352,0 401.6713,180.7547 401.6713,401.6712l0,642.674c0,220.9165 -176.7361,401.6677 -401.6713,401.6677l-1972.2024,0c-20.0827,0 -40.1653,20.0862 -40.1653,40.1689l0,401.6713c0,24.0977 20.0826,40.1653 40.1653,40.1653l1972.2024,0c490.0354,0 883.6734,-397.6526 883.6734,-883.6732l0,-642.674c0,-490.0357 -393.638,-883.6731 -883.6734,-883.6731l-1972.2024,0z" id="path10"/>
  <path fill="#102a83" fill-rule="evenodd" d="m6276.715336,2173.168567l-835.4741,0c-20.0826,0 -36.1502,16.0675 -36.1502,40.1653l0,2329.6897c0,20.0826 16.0676,40.1653 36.1502,40.1653l401.6713,0c24.0978,0 40.1653,-20.0827 40.1653,-40.1653l0,-763.1736l401.6713,0c441.8366,0 803.3389,-357.4872 803.3389,-799.3238c0,-449.8704 -369.5361,-807.3576 -811.3727,-807.3576zm8.0338,1124.6759l-401.6713,0l0,-642.674l401.6713,0c176.7324,0 321.337,144.6045 321.337,321.337c0,176.7361 -144.6046,321.337 -321.337,321.337z" id="path12"/>
  <path fill="#102a83" fill-rule="evenodd" d="m12994.625836,4261.891467l630.622,0l77.391,280.7678c6.633,24.0631 31.138,40.1076 51.221,40.1076l401.671,0c24.101,0 35.742,-16.0445 29.11,-40.1076l-641.236,-2326.3432c-6.633,-24.0631 -27.12,-40.1076 -51.221,-40.1076l-473.972,0c-28.116,0 -51.81,16.0445 -56.12,44.1205l-598.529,2302.2729c-1.804,8.0222 -0.698,12.0352 1.514,20.0574c5.527,20.0538 27.123,40.1076 51.22,40.1076l445.856,0c32.135,0 55.829,-16.0445 60.139,-44.1205l72.334,-276.7549zm304.476,-1183.2254l193.477,701.9159l-373.555,0l180.078,-701.9159z" id="path14"/>
  <path fill="#000200" fill-rule="evenodd" stroke="#1b1918" stroke-width="0.5" d="m13047.196836,5026.983167l-27.942,-6.9894l131.951,-163.8592l78.222,60.558l-121.626,99.6922c5.698,-0.3402 11.466,-0.5125 17.3,-0.5125c138.201,0 240.815,108.1457 240.815,245.241c0,143.1987 -95.924,256.6231 -243.345,256.6231c-146.682,0 -243.345,-113.3136 -243.345,-255.9887c0,-115.1489 67.111,-204.5083 167.97,-234.7645zm-4033.5716,339.6504l-126.0737,0l-57.3937,148.5867l-99.9635,-8.2261l192.0705,-480.1839l75.1283,-4.2284l181.9704,485.4852l-113.6302,5.3595l-52.1081,-146.793zm904.8786,-70.1161c0,41.1803 -0.293,88.9914 -19.656,126.4022c-5.567,10.7558 -12.462,20.5586 -20.155,29.8883c-39.368,47.7436 -94.971,64.9284 -155.4861,64.9284c-68.1177,0 -134.5686,-24.9361 -168.5829,-87.3766c-2.785,-5.1123 -5.3467,-10.3351 -7.5977,-15.7053c-15.3505,-36.6214 -14.6908,-84.1079 -14.6908,-123.1937l0,-268.0016l105.4621,0l0,269.2667c0,27.6806 -0.7784,71.1329 12.8928,96.2232c2.1538,3.9523 4.6551,7.6895 7.3539,11.2884c16.1096,21.4806 42.4069,29.1061 68.3272,29.1061c35.6321,0 67.0927,-13.8597 81.4595,-47.8491c1.3396,-3.1697 2.602,-6.3737 3.672,-9.6454c2.779,-8.4949 3.938,-17.045 4.643,-25.9302c1.421,-17.9105 1.322,-36.4944 1.322,-54.4581l0,-268.0016l101.036,0l0,273.0583zm627.616,-184.6692l0,398.3011l-106.093,0l0,-398.3011l-139.09,0l0,-88.3891l388.696,0l0,88.3891l-143.513,0zm981.027,149.265c0,143.199 -95.925,256.6231 -243.346,256.6231c-146.682,0 -243.345,-113.3136 -243.345,-255.9887c0,-142.757 103.151,-245.8754 245.875,-245.8754c138.201,0 240.816,108.1457 240.816,245.241zm825.078,-51.0151l-126.618,293.7297l-58.096,0l-125.93,-290.9628l-18.436,299.5725l-96.629,-4.6588l31.227,-484.3196l113.087,0l131.233,310.746l128.955,-310.746l111.659,0l37.446,483.3403l-104.092,6.5712l-23.806,-303.2725zm1573.155,127.3215l121.26,-323.1762l99.923,21.5759l-192.48,474.33l-71.266,0l-177.625,-475.0475l106.939,-20.5245l113.249,322.8423zm699.564,-225.5714l0,99.3795l155.525,0l0,89.0232l-155.525,0l0,121.506l185.873,0l0,88.3924l-291.335,0l0,-486.6902l264.148,0l0,88.3891l-158.686,0zm691.471,398.3011l-105.462,0l0,-486.6902l105.462,0l0,486.6902zm529.168,-218.2195c-9.162,-6.122 -18.038,-12.799 -26.967,-19.2583c-43.349,-31.3602 -78.676,-73.0145 -78.676,-129.153c0,-32.2517 13.513,-63.3087 36.485,-85.8481c31.504,-30.9106 75.298,-41.7982 118.351,-41.7982c47.763,0 100.562,18.3186 131.51,56.1413l12.076,14.7594l-63.179,69.2535l-16.121,-20.2643c-16.8,-21.1178 -38.775,-31.4972 -65.551,-31.4972c-27.505,0 -45.659,10.4967 -44.955,39.3497c0.461,18.9023 15.903,32.9928 29.658,43.9971c3.899,3.1187 8.689,6.0982 12.867,8.862c7.226,4.7798 14.478,9.5167 21.65,14.3801c1.736,1.1776 3.468,2.3619 5.193,3.5555c8.924,5.9468 18.039,11.8421 26.653,18.22c49.026,36.2985 91.758,75.3265 91.758,140.3875c0,18.1106 -3.406,36.008 -10.324,52.7587c-26.672,64.5866 -93.497,91.9608 -159.686,91.9608c-51.926,0 -103.366,-17.3021 -137.602,-57.7599l-10.419,-12.3123l52.124,-83.1384l19.301,25.5302c15.142,20.0296 53.386,39.2876 78.491,39.2876c33.373,0 60.247,-13.625 59.493,-50.1806c-0.474,-22.9788 -19.801,-41.222 -35.982,-55.1951c-2.612,-2.2561 -5.256,-4.3968 -8.085,-6.3762c-4.064,-2.8429 -8.354,-5.4712 -12.512,-8.1811c-8.65,-5.6356 -17.139,-11.4976 -25.551,-17.4807zm-6861.1375,-8.6287l-31.6202,-92.6039l-33.2353,92.6039l64.8555,0zm2430.9165,-15.2316c0,-84.8719 -40.569,-163.8046 -134.091,-163.8046c-89.49,0 -129.031,83.3363 -129.031,162.5395c0,81.5332 39.926,162.5391 131.561,162.5391c23.992,0 47.068,-5.9425 67.297,-19.0304c47.148,-30.5036 64.264,-88.7921 64.264,-142.2436zm1838.771,0c0,-84.8719 -40.569,-163.8046 -134.091,-163.8046c-89.49,0 -129.031,83.3366 -129.031,162.5395c0,81.5332 39.926,162.5391 131.561,162.5391c23.992,0 47.067,-5.9423 67.297,-19.0301c47.148,-30.5036 64.264,-88.7924 64.264,-142.2439z" id="path16"/>
  <path fill="#000200" fill-rule="evenodd" d="m5673.837536,5094.913767a191.999,191.9972 0 0 1 191.999,191.9972a191.999,191.9972 0 1 1 -191.999,-191.9972z" id="path18"/>
  <path fill="#1b1918" fill-rule="evenodd" d="m6436.228536,5094.913767a191.999,191.9972 0 0 1 191.999,191.9972a191.999,191.9972 0 1 1 -191.999,-191.9972z" id="path20"/>
  <path fill="#000200" fill-rule="evenodd" d="m7214.499836,5094.913767a191.999,191.9972 0 0 1 191.999,191.9972a191.999,191.9972 0 1 1 -191.999,-191.9972z" id="path22"/>
  <path fill="#102a83" fill-rule="evenodd" d="m13489.229836,2051.527167c4.864,4.8641 12.16,9.728 19.456,9.728c4.864,0 9.728,-2.4319 14.592,-4.8639l206.722,-126.4653c7.296,-4.8638 12.16,-12.1599 12.16,-19.456c0,-4.8641 -2.432,-9.7282 -4.864,-14.5921c-85.121,-121.6012 -221.314,-187.2658 -359.939,-187.2658c-136.193,0 -216.45,85.1209 -299.139,85.1209c-46.208,0 -89.985,-19.4563 -116.737,-53.5047c-4.864,-4.8639 -12.16,-7.296 -19.456,-7.296c-4.864,0 -9.728,0 -12.16,2.4321l-209.154,128.897c-4.864,2.4322 -9.728,12.1602 -9.728,19.4563c0,4.8641 0,9.728 4.864,14.5921c85.121,121.6012 221.314,187.2658 359.939,187.2658c133.761,0 211.586,-85.1208 308.867,-85.1208c46.209,0 80.257,24.3201 104.577,51.0724z" id="path24"/>
  <path id="svg_3" d="m4450.003573,2540.002144c140.000118,440.000371 110.000093,1020.000861 100.000358,1010.000923" opacity="0.5" fill-opacity="null" stroke-opacity="null" stroke-width="0.5" stroke="#1b1918" fill="#ececed"/>
 </g>
</svg>